<svg xmlns="http://www.w3.org/2000/svg" xmlns:xlink="http://www.w3.org/1999/xlink" version="1.1" x="0px" y="0px" viewBox="0 0 100 125" style="enable-background:new 0 0 100 100;" xml:space="preserve"><path d="M89.3,39.8c-2.4-1.2-9.4-4.1-22.6-4c-0.9-2.2-4.3-8.4-16-11c-0.4-0.1-0.7,0-1,0.3c-0.2,0.3-0.3,0.7-0.1,1  c0.8,1.8,2.5,7,1.6,9.8c-2.2,0.1-9.7,0.9-20.1,6c-0.7,0.4-1.7,0.2-2.2-0.5c-3.1-3.9-9.3-10.4-16.4-10.3c-0.4,0-0.8,0.3-0.9,0.6  c-0.1,0.4,0,0.8,0.3,1.1c0,0,3.3,3,5.4,7.6c2.8,6,2.4,11.7-1.2,17c-0.2,0.3-0.2,0.7,0,1c0.2,0.3,0.5,0.5,0.9,0.5  c0.3,0,6.2-0.5,11.5-6.6c0.5-0.6,1.5-0.8,2.2-0.4c3.7,2,11.1,5.6,19.8,7.6L50,68.8c0,0.3,0.1,0.6,0.4,0.8c0.2,0.1,0.4,0.2,0.6,0.2  c0.1,0,0.2,0,0.3,0c0.4-0.1,8.8-2.7,13.1-8.6c0,0,0.1,0,0.1,0c5.3,0,10.3-0.8,14.8-2.3c0.3-0.1,0.5-0.3,0.6-0.6  c0.1-0.3,0.1-0.6-0.1-0.9l-3-4.4h4.7c0.1,0,0.2,0,0.2,0c0.2-0.1,6.1-1.7,8.6-10.9C90.6,41.3,90.2,40.3,89.3,39.8z M81.4,51.2h-6.4  c-0.4,0-0.7,0.2-0.9,0.5c-0.2,0.3-0.1,0.7,0.1,1l3.3,4.8c-4.2,1.2-8.7,1.8-13.6,1.8c0,0,0,0,0,0c-0.3,0-0.6,0.2-0.8,0.4  c-2.9,4.2-8.5,6.8-11.1,7.7l0.5-8.6c0-0.5-0.3-0.9-0.8-1c-8.9-1.9-16.4-5.5-20.1-7.6c-0.6-0.3-1.2-0.5-1.8-0.5c-1,0-2.1,0.4-2.8,1.2  c-2.9,3.4-6.1,4.8-8.2,5.5c5.3-10.1-0.6-19.3-3.9-23.2c5.5,1.3,10.4,6.7,12.4,9.3c1.1,1.4,3,1.8,4.6,1c11.8-5.8,19.9-5.8,19.9-5.8  c0.4,0,0.7-0.2,0.9-0.5c1.5-2.9,0.2-7.6-0.7-10.2c11.1,3,12.9,9.6,13,9.9c0.1,0.4,0.5,0.7,0.9,0.7c0,0,0,0,0,0  c13.6-0.2,20.6,2.9,22.4,3.8c0,0,0.1,0.1,0.1,0.1C86.5,49.2,82.2,50.9,81.4,51.2z"/><circle cx="74.2" cy="46.3" r="1.6"/><path d="M65.6,51.3c-0.2,0-0.4-0.1-0.5-0.3L63,46.5c-0.1-0.2,0-0.5,0.2-0.7c0.2-0.1,0.5,0,0.7,0.2l2.1,4.5  c0.1,0.2,0,0.5-0.2,0.7C65.7,51.3,65.6,51.3,65.6,51.3z"/><path d="M63.5,54.7c-0.2,0-0.4-0.1-0.5-0.3l-4.2-8.8c-0.1-0.2,0-0.5,0.2-0.7c0.2-0.1,0.5,0,0.7,0.2l4.2,8.8  c0.1,0.2,0,0.5-0.2,0.7C63.6,54.7,63.5,54.7,63.5,54.7z"/><path d="M74.2,49.8c-1.9,0-3.5-1.6-3.5-3.5c0-1.9,1.6-3.5,3.5-3.5s3.5,1.6,3.5,3.5C77.7,48.2,76.1,49.8,74.2,49.8z   M74.2,43.7c-1.4,0-2.5,1.1-2.5,2.5s1.1,2.5,2.5,2.5c1.4,0,2.5-1.1,2.5-2.5S75.6,43.7,74.2,43.7z"/></svg>