<svg xmlns="http://www.w3.org/2000/svg" xmlns:xlink="http://www.w3.org/1999/xlink" version="1.1" x="0px" y="0px" viewBox="0 0 52 65" enable-background="new 0 0 52 52" xml:space="preserve"><g><g><path d="M26,31.4937134c-1.7089844,0.0009766-3.4169922-0.3564453-5.0087891-1.0703125    c-2.6630859-1.1933594-5.71875-1.1933594-8.3818359,0c-3.1835938,1.4287109-6.8349609,1.4277344-10.0185547,0    c-0.5039063-0.2255859-0.7294922-0.8173828-0.5029297-1.3212891c0.2255859-0.5039063,0.8164063-0.7285156,1.3212891-0.5029297    c2.6630859,1.1923828,5.7167969,1.1943359,8.3818359,0c3.1816406-1.4277344,6.8330078-1.4287109,10.0185547,0    c2.6621094,1.1933594,5.7167969,1.1933594,8.3808594,0c3.1855469-1.4277344,6.8369141-1.4267578,10.0185547,0    c2.6650391,1.1943359,5.71875,1.1923828,8.3818359,0c0.5048828-0.2255859,1.0957031-0.0009766,1.3212891,0.5029297    c0.2265625,0.5039063,0.0009766,1.0957031-0.5029297,1.3212891c-3.1835938,1.4267578-6.8349609,1.4277344-10.0185547,0    c-2.6650391-1.1943359-5.71875-1.1923828-8.3818359,0C29.4169922,31.1372681,27.7080078,31.4937134,26,31.4937134z"/></g><g><path d="M26,37.5249634c-1.7089844,0.0009766-3.4169922-0.3564453-5.0087891-1.0703125    c-2.6630859-1.1943359-5.71875-1.1923828-8.3818359,0c-3.1835938,1.4287109-6.8349609,1.4277344-10.0185547,0    c-0.5039063-0.2255859-0.7294922-0.8173828-0.5029297-1.3212891c0.2255859-0.5029297,0.8164063-0.7294922,1.3212891-0.5029297    c2.6630859,1.1923828,5.7167969,1.1943359,8.3818359,0c3.1816406-1.4277344,6.8330078-1.4287109,10.0185547,0    c2.6621094,1.1933594,5.7167969,1.1933594,8.3808594,0c3.1855469-1.4277344,6.8369141-1.4267578,10.0185547,0    c2.6650391,1.1943359,5.71875,1.1923828,8.3818359,0c0.5048828-0.2265625,1.0957031,0,1.3212891,0.5029297    c0.2265625,0.5039063,0.0009766,1.0957031-0.5029297,1.3212891c-3.1835938,1.4267578-6.8349609,1.4277344-10.0185547,0    c-2.6650391-1.1943359-5.71875-1.1923828-8.3818359,0C29.4169922,37.1685181,27.7080078,37.5249634,26,37.5249634z"/></g><g><path d="M26.078125,31.4937134c-1.7080078,0-3.4169922-0.3564453-5.0087891-1.0703125    c-0.1572266-0.0703125-0.3710938-0.1445313-0.5595703-0.2119141l-0.1279297-0.0458984    c-0.2421875-0.0449219-0.4677734-0.1796875-0.6240234-0.3945313c-0.3251953-0.4462891-0.2265625-1.0722656,0.2207031-1.3964844    l7.0029297-5.0908203l-0.0488281-1.015625h-4.2558594c-0.9121094-0.0449219-1.7138672-0.4589844-2.25-1.1347656    c-0.5361328-0.6767578-0.7539063-1.5585938-0.5986328-2.4189453c0.2558594-1.4169922,1.5371094-2.4462891,3.0458984-2.4462891    h6.0019531c0.9013672,0,1.7460938,0.3994141,2.3183594,1.0957031l9.4570313,11.5126953    c0.2949219,0.3583984,0.3037109,0.8720703,0.0224609,1.2412109s-0.78125,0.4941406-1.203125,0.3066406    c-0.3447266-0.1542969-0.6953125-0.2890625-1.0507813-0.4042969c-2.4121094-0.7773438-5.0166016-0.6337891-7.3320313,0.4033203    C29.4960938,31.1372681,27.7871094,31.4937134,26.078125,31.4937134z M22.6503906,28.9048462    c2.4736328,0.8769531,5.2080078,0.7744141,7.6191406-0.3056641c2.1455078-0.9628906,4.4990234-1.2841797,6.7910156-0.9423828    l-7.4121094-9.0234375c-0.1904297-0.2324219-0.4726563-0.3652344-0.7724609-0.3652344h-6.0019531    c-0.53125,0-0.9951172,0.3447266-1.0771484,0.8027344c-0.0546875,0.2998047,0.015625,0.5908203,0.1972656,0.8203125    c0.1787109,0.2255859,0.4462891,0.3632813,0.7333984,0.3779297l5.1386719-0.0009766    c0.5332031,0,0.9931641,0.4189453,1.0185547,0.9521484l0.0947266,1.9667969    c0.0332031,0.6738281-0.2744141,1.3154297-0.8222656,1.7138672L22.6503906,28.9048462z"/></g><g><path d="M42.5019531,24.3892212c-2.7333984,0-4.9570313-2.2236328-4.9570313-4.9570313s2.2236328-4.9580078,4.9570313-4.9580078    s4.9580078,2.2246094,4.9580078,4.9580078S45.2353516,24.3892212,42.5019531,24.3892212z M42.5019531,16.4741821    c-1.6308594,0-2.9570313,1.3271484-2.9570313,2.9580078s1.3261719,2.9570313,2.9570313,2.9570313    s2.9580078-1.3261719,2.9580078-2.9570313S44.1328125,16.4741821,42.5019531,16.4741821z"/></g></g></svg>